<svg width="128" height="128" viewBox="0 0 128 128" fill="none" xmlns="http://www.w3.org/2000/svg">
<path fill-rule="evenodd" clip-rule="evenodd" d="M128 64C128 28.652 99.348 0 64 0C28.652 0 0 28.652 0 64C0 99.348 28.652 128 64 128C99.348 128 128 99.348 128 64ZM83.1891 48.5652C84.134 48.5652 85.0643 48.7976 85.8981 49.242L103.957 59.62C104.787 60.0426 105.482 60.6902 105.961 61.4888C106.44 62.2874 106.685 63.2047 106.668 64.136V85.136C106.639 86.0541 106.377 86.9497 105.907 87.7388C105.437 88.5278 104.774 89.1845 103.98 89.647L85.9221 100.03C85.0882 100.476 84.157 100.71 83.2111 100.71C82.2653 100.71 81.3341 100.476 80.5001 100.03L62.4411 89.649C61.6116 89.2251 60.9179 88.5765 60.4393 87.7773C59.9606 86.9781 59.7163 86.0604 59.7341 85.129V77.91L67.8401 73.172V80.422C67.8706 81.343 68.1355 82.2411 68.6099 83.0312C69.0843 83.8213 69.7525 84.4772 70.5511 84.937L80.2581 90.355C81.0914 90.8012 82.0219 91.0347 82.9671 91.0347C83.9123 91.0347 84.8429 90.8012 85.6761 90.355L95.3831 84.715C96.2122 84.2916 96.9056 83.6437 97.3843 82.8452C97.8629 82.0467 98.1075 81.1298 98.0901 80.199V69.137C98.0607 68.2155 97.7966 67.3168 97.3229 66.5259C96.8493 65.7349 96.1816 65.0779 95.3831 64.617L85.6761 59.199C84.8423 58.7546 83.912 58.5222 82.9671 58.5222C82.0223 58.5222 81.092 58.7546 80.2581 59.199L68.0861 66.176L59.7341 71.141L47.5201 78.141C46.6863 78.5854 45.756 78.8178 44.8111 78.8178C43.8663 78.8178 42.936 78.5854 42.1021 78.141L24.0431 67.734C23.2164 67.3126 22.5242 66.6681 22.0451 65.8734C21.5659 65.0788 21.3189 64.1658 21.3321 63.238V42.247C21.285 41.281 21.543 40.3246 22.0696 39.5134C22.5961 38.7022 23.3646 38.0772 24.2661 37.727L42.3241 27.345C43.1574 26.8988 44.0879 26.6653 45.0331 26.6653C45.9783 26.6653 46.9089 26.8988 47.7421 27.345L65.6021 37.727C66.4241 38.1563 67.1094 38.8073 67.5802 39.6062C68.0511 40.4051 68.2887 41.3199 68.2661 42.247V49.243L59.9371 54.208V46.99C59.907 46.0683 59.6423 45.1696 59.1681 44.3787C58.6939 43.5878 58.0259 42.9308 57.2271 42.47L47.5201 37.052C46.6869 36.6057 45.7563 36.3723 44.8111 36.3723C43.8659 36.3723 42.9354 36.6057 42.1021 37.052L32.3941 42.469C31.5643 42.8928 30.8702 43.5412 30.391 44.3404C29.9118 45.1396 29.6669 46.0573 29.6841 46.989V58.265C29.7144 59.1868 29.9792 60.0856 30.4536 60.8765C30.928 61.6674 31.5962 62.3243 32.3951 62.785L42.1021 68.434C42.936 68.8784 43.8663 69.1108 44.8111 69.1108C45.756 69.1108 46.6863 68.8784 47.5201 68.434L59.7341 61.207L68.2661 56.465L80.4801 49.242C81.314 48.7976 82.2443 48.5652 83.1891 48.5652Z" fill="white"/>
</svg>
