<svg width="128" height="128" viewBox="0 0 128 128" fill="none" xmlns="http://www.w3.org/2000/svg">
<path fill-rule="evenodd" clip-rule="evenodd" d="M126 64C126 98.2417 98.2417 126 64 126C29.7583 126 2 98.2417 2 64C2 29.7583 29.7583 2 64 2C98.2417 2 126 29.7583 126 64ZM20.6001 72.2L36.0001 70.7C36.6001 72.6 37.5001 73.9 38.7001 74.7C39.9001 75.5 41.4001 75.9 43.3001 75.9C45.4001 75.9 47.0001 75.4 48.2001 74.5C49.1001 73.9 49.5001 73 49.5001 72C49.5001 70.8 49.0001 69.9 47.8001 69.3C47.0001 68.9 44.7001 68.3 41.1001 67.7C35.7001 66.7 31.9001 65.8 29.8001 65C27.7001 64.2 25.9001 62.9 24.5001 60.9C23.0001 58.9 22.3001 56.7 22.3001 54.2C22.3001 51.5 23.0001 49.2 24.6001 47.2C26.1001 45.2 28.3001 43.8 31.0001 42.8C33.7001 41.8 37.4001 41.3 42.0001 41.3C46.9001 41.3 50.5001 41.6 52.8001 42.4C55.1001 43.1 57.1001 44.3 58.6001 45.9C60.2001 47.5 61.5001 49.6 62.5001 52.3L47.7001 53.8C47.3001 52.5 46.7001 51.5 45.8001 50.9C44.6001 50.1 43.1001 49.7 41.4001 49.7C39.6001 49.7 38.3001 50 37.5001 50.6C36.7001 51.2 36.3001 52 36.3001 52.9C36.3001 53.9 36.8001 54.7 37.8001 55.2C38.9001 55.7 41.1001 56.2 44.5001 56.6C49.7001 57.2 53.6001 58 56.1001 59.1C58.6001 60.2 60.6001 61.7 61.9001 63.7C63.2001 65.7 63.9001 67.8 63.9001 70.2C63.9001 72.6 63.2001 74.9 61.8001 77.2C60.4001 79.5 58.1001 81.3 55.1001 82.6C52.0001 83.9 47.8001 84.6 42.6001 84.6C35.1001 84.6 29.8001 83.5 26.7001 81.4C23.5001 79.2 21.5001 76.1 20.6001 72.2ZM90.3001 40.3C76.8001 40.3 67.1001 50.2 67.1001 62.5C67.1001 75 76.7001 84.7 90.6001 84.6C95.9001 84.6 101.5 83.4 105.6 81.4L105.8 81.3V62.8H94.6001V73.6C93.5001 73.8 92.0001 74 90.6001 74C83.2001 74 78.8001 68.6 78.8001 62.3C78.8001 59.2 79.9001 56.3 82.0001 54.2C84.1001 52.1 87.2001 50.7 91.2001 50.7C97.0001 50.7 101.1 52.3 103.8 53.5L104.4 53.8V43.2L104.2 43.1C101.3 41.8 96.6001 40.3 90.3001 40.3Z" fill="white"/>
</svg>
