<svg width="128" height="128" viewBox="0 0 128 128" fill="none" xmlns="http://www.w3.org/2000/svg">
<path fill-rule="evenodd" clip-rule="evenodd" d="M56.942 5.696C77.336 -5.118 105.553 -0.0760039 119.838 16.936V16.956C125.148 23.134 128.002 30.539 128 38.134C127.994 40.275 127.768 42.411 127.324 44.52C126.33 49.078 124.239 53.422 121.177 57.291C124.417 62.449 126.113 68.18 126.122 74C126.125 76.142 125.894 78.279 125.434 80.386C124.431 85.072 122.261 89.532 119.064 93.479C115.866 97.426 111.712 100.772 106.868 103.304L71.076 122.305C50.745 133.118 22.465 128.076 8.18096 111.065C4.78696 107.117 2.37496 102.646 1.08496 97.913C-0.203837 93.2113 -0.346151 88.2691 0.669959 83.501C1.66196 78.939 3.75296 74.591 6.81596 70.719C3.54896 65.56 1.83096 59.82 1.80896 53.989C1.81323 51.8388 2.04383 49.6949 2.49696 47.593C3.51396 42.909 5.69496 38.453 8.90096 34.51C12.107 30.567 16.266 27.225 21.113 24.696L56.942 5.696ZM46.28 113.427C48.6867 113.426 51.0867 113.171 53.44 112.667H53.441C55.977 112.106 58.4269 111.209 60.726 110L96.491 91.01C99.401 89.484 101.896 87.471 103.819 85.099C105.741 82.726 107.049 80.046 107.658 77.229C107.936 75.951 108.074 74.654 108.071 73.355C108.07 68.786 106.354 64.332 103.164 60.615C100.543 57.474 97.046 54.907 92.974 53.135C88.902 51.363 84.375 50.438 79.779 50.438C77.3723 50.4395 74.9724 50.6942 72.619 51.198C70.0872 51.7557 67.6413 52.6489 65.346 53.854L51.676 61.146C50.9827 61.5153 50.2407 61.785 49.472 61.947C48.7649 62.102 48.0429 62.1791 47.319 62.177C45.954 62.1807 44.6029 61.9043 43.349 61.365C42.124 60.832 41.072 60.06 40.284 59.115C39.322 57.993 38.806 56.649 38.807 55.271C38.8272 54.8988 38.8818 54.5292 38.97 54.167C39.1648 53.295 39.5614 52.4809 40.128 51.79C40.7355 51.0499 41.487 50.4409 42.337 50L78.165 31.01C78.8571 30.6385 79.599 30.3684 80.368 30.208C81.0651 30.0408 81.7783 29.95 82.495 29.937C83.86 29.934 85.2111 30.2107 86.465 30.75C87.691 31.284 88.742 32.055 89.531 33C90.492 34.13 91.008 35.48 91.008 36.865V37.437L90.883 38.542L92.211 38.885C97.249 40.151 101.991 42.124 106.231 44.719L108.058 45.833L108.734 44.125C109.094 43.2221 109.383 42.2922 109.598 41.344C109.862 40.0797 109.997 38.7917 109.999 37.5C110.019 32.934 108.325 28.477 105.154 24.75C102.525 21.604 99.019 19.034 94.935 17.264C90.851 15.493 86.312 14.573 81.707 14.583C79.292 14.583 76.887 14.834 74.547 15.333C71.974 15.91 69.522 16.81 67.274 18L31.446 36.99C28.539 38.517 26.045 40.531 24.123 42.904C22.2 45.276 20.892 47.955 20.279 50.771C20.015 52.037 19.881 53.319 19.879 54.604C19.88 59.172 21.596 63.626 24.786 67.344C27.405 70.484 30.899 73.05 34.969 74.822C39.039 76.594 43.564 77.52 48.158 77.52C50.574 77.518 52.979 77.262 55.319 76.76C57.8501 76.2001 60.2957 75.307 62.592 74.104L76.237 66.854C76.9259 66.4858 77.6631 66.2162 78.427 66.053C79.1341 65.898 79.8561 65.8208 80.58 65.823C81.9471 65.8182 83.3006 66.0939 84.557 66.633C85.784 67.167 86.838 67.939 87.628 68.885C88.603 70.004 89.133 71.348 89.143 72.729C89.147 73.787 88.829 74.828 88.219 75.755C87.608 76.682 86.724 77.465 85.651 78.031L49.861 97.125C49.1657 97.4901 48.4243 97.7598 47.657 97.927C46.9498 98.0816 46.2279 98.1584 45.504 98.156C44.1328 98.1548 42.7767 97.8698 41.521 97.319C40.295 96.775 39.247 95.989 38.469 95.031C37.506 93.907 36.989 92.558 36.992 91.177V90.604L37.117 89.5L35.789 89.167C30.753 87.897 26.012 85.924 21.769 83.333L19.942 82.177L19.266 83.885C18.9052 84.7882 18.6159 85.7184 18.401 86.667C18.1369 87.9276 18.0029 89.212 18.001 90.5C17.998 95.069 19.714 99.524 22.908 103.24C25.524 106.384 29.017 108.953 33.087 110.727C37.158 112.502 41.685 113.428 46.28 113.427Z" fill="white"/>
</svg>
