<svg width="297" height="277" viewBox="0 0 297 277" fill="none" xmlns="http://www.w3.org/2000/svg">
<circle cx="138.038" cy="141.133" r="108.248" stroke="#AC8DDE" stroke-width="52.81"/>
<path d="M108.817 102.062C99.7292 102.062 92.1364 100.233 86.0387 96.5744C79.9409 92.9157 75.6135 87.7424 73.0563 81.0546C71.522 76.8451 70.7549 72.498 70.7549 68.0132C70.7549 64.7873 69.9681 62.4072 68.3945 60.8729C66.8209 59.3386 64.3817 58.4928 61.0771 58.3354V44.1729C64.3817 44.0155 66.8209 43.209 68.3945 41.7534C69.9681 40.2585 70.7549 37.8981 70.7549 34.6721C70.7549 25.1124 73.8038 17.1263 79.9016 10.7138C82.9701 7.56657 87.0222 5.08812 92.0578 3.27846C97.0933 1.4688 102.68 0.563965 108.817 0.563965V20.1555C102.444 20.1555 99.2571 24.9944 99.2571 34.6721C99.2571 42.1862 94.3395 47.7332 84.5044 51.3132C94.3395 54.8932 99.2571 60.4598 99.2571 68.0132C99.2571 77.691 102.444 82.5298 108.817 82.5298V102.062Z" fill="#FF5C00"/>
<path d="M105.877 182.685V170.703C109.787 170.703 111.742 167.734 111.742 161.797C111.742 157.164 114.758 153.749 120.792 151.553C114.758 149.357 111.742 145.954 111.742 141.344C111.742 135.408 109.787 132.439 105.877 132.439V120.421C111.452 120.421 116.098 121.531 119.814 123.751C123.531 125.972 126.173 129.157 127.742 133.308C128.731 135.866 129.226 138.521 129.226 141.272C129.226 145.037 131.205 147.004 135.163 147.173V155.861C133.136 155.957 131.639 156.476 130.674 157.417C129.709 158.358 129.226 159.818 129.226 161.797C129.226 167.638 127.344 172.5 123.579 176.386C121.721 178.365 119.259 179.909 116.194 181.019C113.129 182.13 109.69 182.685 105.877 182.685Z" fill="#DBFF00"/>
<path d="M194.209 232.329C186.767 232.329 179.79 231.332 173.278 229.339C167.12 227.345 161.76 224.643 157.197 221.232C152.944 217.777 149.223 213.635 146.034 208.806C143.11 204.199 140.895 199.171 139.389 193.722C138.015 188.406 137.329 182.78 137.329 176.844C137.329 167.63 138.414 159.634 140.585 152.856C142.578 146.167 145.901 140.364 150.552 135.446C154.893 130.839 160.785 127.273 168.228 124.748C175.758 122.356 184.508 121.16 194.475 121.16V143.221L194.342 143.354C191.108 143.354 188.074 143.863 185.239 144.882C182.403 145.901 180.233 147.208 178.727 148.803C176.955 150.796 175.581 152.657 174.607 154.384C173.455 156.333 172.591 158.637 172.015 161.295C171.705 162.845 171.461 164.241 171.284 165.481C171.107 166.722 170.996 167.829 170.952 168.804C170.775 170.266 170.686 172.901 170.686 176.711C170.686 180.388 170.863 183.6 171.218 186.346C171.572 188.783 172.303 191.773 173.411 195.317C174.474 198.506 175.869 201.098 177.597 203.091C179.325 205.351 181.562 207.078 184.308 208.274C187.099 209.648 190.399 210.334 194.209 210.334V232.329Z" fill="#00E0FF"/>
<path d="M166.842 191.429C168.024 195.121 168.616 199.477 168.616 204.497C168.616 207.803 168.217 210.892 167.421 213.764C166.721 216.636 165.539 219.375 163.873 221.982C162.281 224.419 160.253 226.651 157.792 228.679C155.306 230.537 152.386 232.009 149.031 233.095C145.387 234.181 141.586 234.724 137.628 234.724V222.742C139.68 222.742 141.466 222.368 142.986 221.62C144.555 220.92 145.786 219.979 146.678 218.796C147.692 217.469 148.428 216.057 148.887 214.561C149.538 212.751 149.936 211.122 150.081 209.674C150.323 207.912 150.443 206.162 150.443 204.425C150.443 203.821 150.431 203.17 150.407 202.47C150.383 201.746 150.347 200.962 150.298 200.117C150.178 199.152 150.069 198.331 149.973 197.655C149.876 196.955 149.792 196.412 149.719 196.026C149.478 194.723 149.007 193.468 148.307 192.262C147.656 191.055 146.896 190.041 146.027 189.221C145.086 188.207 143.891 187.471 142.443 187.013C140.923 186.458 139.294 186.18 137.556 186.18V174.162C143.058 174.162 147.777 174.837 151.71 176.189C155.668 177.42 158.914 179.362 161.448 182.017C163.837 184.551 165.635 187.688 166.842 191.429Z" fill="#FF5C00"/>
<path d="M78.1153 142.931V154.96H50.6917V92.2222H78.27V103.787H70.6502V142.931H78.1153Z" fill="white"/>
<path d="M220.041 90.8694V172.911H184.179V157.181H193.941V105.993H183.977V90.8694H220.041Z" fill="#00E0FF"/>
<path d="M241.649 77.3825V120.816H231.126V77.3825H241.649Z" fill="white"/>
<path d="M71.013 267.07V248.914C73.423 248.914 75.5117 248.754 77.2791 248.432C79.1 248.111 80.5192 247.576 81.5368 246.826C82.6614 245.969 83.5451 245.139 84.1878 244.335C84.8304 243.264 85.3125 242.006 85.6338 240.56C85.9551 238.846 86.1158 237.427 86.1158 236.302C86.1693 235.874 86.1961 235.204 86.1961 234.294C86.2497 233.437 86.2765 232.339 86.2765 231H71.1737V201.678H112.144C113.376 210.568 113.992 217.986 113.992 223.931C113.992 238.819 110.537 249.718 103.629 256.627C96.6128 263.589 85.7409 267.07 71.013 267.07Z" fill="#FF2875"/>
<path d="M138.832 84.248C136.743 84.248 134.994 83.65 133.583 82.4539C132.155 81.24 131.441 79.5887 131.441 77.5C131.441 75.5006 132.137 73.9117 133.53 72.7335C134.94 71.5731 136.734 70.9929 138.912 70.9929C141.215 70.9929 143.054 71.5731 144.428 72.7335C145.857 73.8939 146.571 75.4827 146.571 77.5C146.571 79.6065 145.839 81.2578 144.375 82.4539C142.947 83.6143 141.126 84.1945 138.912 84.1945L138.832 84.248ZM131.762 112.177L131.709 112.124V106.072C132.53 106.072 133.244 106.019 133.851 105.911C134.458 105.804 134.931 105.626 135.27 105.376C135.645 105.09 135.94 104.814 136.154 104.546C136.368 104.207 136.538 103.787 136.663 103.287C136.77 102.716 136.823 102.261 136.823 101.921C136.841 101.779 136.85 101.556 136.85 101.252C136.868 100.966 136.877 100.6 136.877 100.154H131.762V90.407H145.419C145.866 93.0848 146.089 95.5483 146.089 97.7977C146.089 102.778 144.937 106.42 142.634 108.723C140.314 111.026 136.69 112.177 131.762 112.177Z" fill="#DBFF00"/>
<path d="M22.14 169.923L41.0214 187.9V214.131L0.601551 180.495V159.521L41.0214 125.829V152.116L22.14 169.923Z" fill="#DBFF00"/>
<path d="M294.848 131.83V154.643L250.882 191.23V162.698L271.297 143.145L250.882 123.775V95.1822L294.848 131.83Z" fill="#FF2875"/>
</svg>
