<svg width="111" height="42" viewBox="0 0 111 42" fill="none" xmlns="http://www.w3.org/2000/svg">
<circle cx="19.573" cy="21.573" r="15.7348" stroke="white" stroke-width="7.67644"/>
<path d="M21.9273 27.9821L28 33.6825V42L15 31.3342V24.6837L28 14V22.3355L21.9273 27.9821Z" fill="#AC8DDE"/>
<path d="M21 27C18.5253 27 16.4578 26.5134 14.7973 25.5401C13.1368 24.5669 11.9584 23.1907 11.2621 21.4116C10.8443 20.2919 10.6354 19.1355 10.6354 17.9424C10.6354 17.0843 10.4211 16.4512 9.99258 16.043C9.56407 15.6349 8.89988 15.4099 8 15.368V11.6006C8.89988 11.5587 9.56407 11.3442 9.99258 10.957C10.4211 10.5593 10.6354 9.93139 10.6354 9.07326C10.6354 6.53023 11.4656 4.40581 13.1261 2.7C13.9617 1.86279 15.0651 1.20349 16.4363 0.722093C17.8076 0.240698 19.3288 0 21 0V5.21163C19.2645 5.21163 18.3968 6.49884 18.3968 9.07326C18.3968 11.0721 17.0577 12.5477 14.3795 13.5C17.0577 14.4523 18.3968 15.9331 18.3968 17.9424C18.3968 20.5169 19.2645 21.8041 21 21.8041V27Z" fill="#FF5C00"/>
<path d="M53.3092 18.2119C51.9812 18.2119 50.8016 17.9576 49.7703 17.449C48.7391 16.9405 47.9268 16.2341 47.3334 15.33C46.7542 14.4117 46.4646 13.3663 46.4646 12.1938C46.4646 11.0213 46.7542 9.98292 47.3334 9.07879C47.9268 8.17466 48.7391 7.46831 49.7703 6.95974C50.8016 6.45117 51.9812 6.19688 53.3092 6.19688C54.7219 6.19688 55.9297 6.50061 56.9327 7.10808C57.9357 7.71554 58.628 8.55609 59.0094 9.62975L55.3011 11.4521C55.0609 10.9153 54.7642 10.5268 54.4111 10.2867C54.072 10.0465 53.6976 9.92641 53.288 9.92641C52.9348 9.92641 52.6028 10.0112 52.292 10.1807C51.9953 10.3502 51.7552 10.6045 51.5715 10.9436C51.402 11.2685 51.3172 11.6852 51.3172 12.1938C51.3172 12.7024 51.402 13.1262 51.5715 13.4652C51.7552 13.8043 51.9953 14.0586 52.292 14.2281C52.6028 14.3976 52.9348 14.4824 53.288 14.4824C53.6976 14.4824 54.072 14.3623 54.4111 14.1221C54.7642 13.882 55.0609 13.4935 55.3011 12.9567L59.0094 14.779C58.628 15.8527 57.9357 16.6933 56.9327 17.3007C55.9297 17.9082 54.7219 18.2119 53.3092 18.2119ZM69.1035 18.2119C67.7897 18.2119 66.6242 17.9576 65.6071 17.449C64.6041 16.9263 63.813 16.2129 63.2338 15.3088C62.6546 14.4047 62.365 13.3663 62.365 12.1938C62.365 11.0213 62.6546 9.98292 63.2338 9.07879C63.813 8.17466 64.6041 7.46831 65.6071 6.95974C66.6242 6.45117 67.7897 6.19688 69.1035 6.19688C70.4173 6.19688 71.5828 6.45117 72.6 6.95974C73.6171 7.46831 74.4082 8.17466 74.9733 9.07879C75.5525 9.98292 75.8421 11.0213 75.8421 12.1938C75.8421 13.3663 75.5525 14.4047 74.9733 15.3088C74.4082 16.2129 73.6171 16.9263 72.6 17.449C71.5828 17.9576 70.4173 18.2119 69.1035 18.2119ZM69.1035 14.4824C69.4567 14.4824 69.7746 14.3976 70.0571 14.2281C70.3396 14.0586 70.5657 13.8043 70.7352 13.4652C70.9047 13.1121 70.9895 12.6882 70.9895 12.1938C70.9895 11.6852 70.9047 11.2685 70.7352 10.9436C70.5657 10.6045 70.3396 10.3502 70.0571 10.1807C69.7746 10.0112 69.4567 9.92641 69.1035 9.92641C68.7504 9.92641 68.4325 10.0112 68.15 10.1807C67.8674 10.3502 67.6414 10.6045 67.4719 10.9436C67.3023 11.2685 67.2176 11.6852 67.2176 12.1938C67.2176 12.6882 67.3023 13.1121 67.4719 13.4652C67.6414 13.8043 67.8674 14.0586 68.15 14.2281C68.4325 14.3976 68.7504 14.4824 69.1035 14.4824ZM85.3934 18.2119C84.3904 18.2119 83.458 17.9717 82.5963 17.4914C81.7486 16.997 81.0705 16.3048 80.562 15.4148C80.0534 14.5106 79.7991 13.437 79.7991 12.1938C79.7991 10.9506 80.0534 9.88403 80.562 8.99403C81.0705 8.0899 81.7486 7.39768 82.5963 6.91736C83.458 6.43704 84.3904 6.19688 85.3934 6.19688C86.4106 6.19688 87.2441 6.41585 87.8939 6.85379C88.5437 7.2776 89.0241 7.9345 89.3349 8.82451C89.6456 9.70038 89.801 10.8235 89.801 12.1938C89.801 13.5782 89.6527 14.7155 89.356 15.6055C89.0735 16.4955 88.6073 17.1524 87.9575 17.5762C87.3218 18 86.4671 18.2119 85.3934 18.2119ZM86.5377 14.4824C86.8909 14.4824 87.2087 14.3976 87.4913 14.2281C87.7738 14.0586 87.9998 13.8043 88.1694 13.4652C88.3389 13.1121 88.4237 12.6882 88.4237 12.1938C88.4237 11.6852 88.3389 11.2685 88.1694 10.9436C87.9998 10.6045 87.7738 10.3502 87.4913 10.1807C87.2087 10.0112 86.8909 9.92641 86.5377 9.92641C86.1845 9.92641 85.8667 10.0112 85.5841 10.1807C85.3016 10.3502 85.0756 10.6045 84.906 10.9436C84.7365 11.2685 84.6517 11.6852 84.6517 12.1938C84.6517 12.6882 84.7365 13.1121 84.906 13.4652C85.0756 13.8043 85.3016 14.0586 85.5841 14.2281C85.8667 14.3976 86.1845 14.4824 86.5377 14.4824ZM88.572 18V16.4319L88.5508 12.1938L88.3389 7.95569V2.27664H93.128V18H88.572ZM104.615 18.2119C103.202 18.2119 101.966 17.9506 100.907 17.4279C99.8611 16.9052 99.0488 16.1917 98.4696 15.2876C97.8904 14.3694 97.6008 13.3381 97.6008 12.1938C97.6008 11.0213 97.8833 9.98292 98.4484 9.07879C99.0276 8.17466 99.8117 7.46831 100.801 6.95974C101.804 6.45117 102.927 6.19688 104.17 6.19688C105.314 6.19688 106.367 6.42291 107.327 6.87498C108.302 7.32704 109.079 7.99808 109.658 8.88808C110.252 9.77808 110.548 10.88 110.548 12.1938C110.548 12.3633 110.541 12.554 110.527 12.7659C110.513 12.9637 110.499 13.1474 110.485 13.3169H101.563V11.0071H107.942L106.141 11.6217C106.141 11.1696 106.056 10.7882 105.886 10.4774C105.731 10.1524 105.512 9.90522 105.229 9.7357C104.947 9.55205 104.608 9.46022 104.212 9.46022C103.817 9.46022 103.471 9.55205 103.174 9.7357C102.891 9.90522 102.672 10.1524 102.517 10.4774C102.362 10.7882 102.284 11.1696 102.284 11.6217V12.3421C102.284 12.8366 102.383 13.2604 102.581 13.6136C102.778 13.9667 103.061 14.2352 103.428 14.4188C103.795 14.5883 104.24 14.6731 104.763 14.6731C105.3 14.6731 105.738 14.6025 106.077 14.4612C106.43 14.3199 106.797 14.108 107.179 13.8255L109.679 16.3471C109.114 16.9546 108.415 17.4208 107.582 17.7457C106.762 18.0565 105.773 18.2119 104.615 18.2119Z" fill="white"/>
<path d="M48.5747 34V24.054C48.5747 23.2686 48.8046 22.6347 49.2646 22.1523C49.7246 21.6698 50.3866 21.4286 51.2505 21.4286C51.5871 21.4286 51.9124 21.4735 52.2266 21.5633C52.5407 21.653 52.8044 21.7933 53.0175 21.984L52.6136 22.8759C52.4454 22.7301 52.249 22.6235 52.0246 22.5562C51.8002 22.4776 51.559 22.4384 51.301 22.4384C50.7961 22.4384 50.409 22.5786 50.1398 22.8591C49.8705 23.1396 49.7359 23.5547 49.7359 24.1045V25.4508L49.7695 26.0062V34H48.5747ZM46.9927 26.1576V25.1647H52.4622V26.1576H46.9927ZM60.2894 34V32.0478L60.239 31.7281V28.4632C60.239 27.7115 60.0258 27.1337 59.5995 26.7298C59.1843 26.3259 58.5617 26.124 57.7314 26.124C57.1592 26.124 56.6151 26.2193 56.099 26.4101C55.5829 26.6008 55.1453 26.8532 54.7863 27.1674L54.2478 26.2754C54.6966 25.894 55.2351 25.6023 55.8634 25.4003C56.4917 25.1871 57.1536 25.0805 57.8492 25.0805C58.9936 25.0805 59.8743 25.3666 60.4914 25.9388C61.1197 26.4998 61.4338 27.3581 61.4338 28.5137V34H60.2894ZM57.2434 34.0841C56.5814 34.0841 56.0036 33.9776 55.51 33.7644C55.0275 33.54 54.6573 33.2371 54.3992 32.8556C54.1412 32.4629 54.0122 32.0142 54.0122 31.5093C54.0122 31.0493 54.1188 30.6342 54.3319 30.2639C54.5563 29.8825 54.9153 29.5795 55.409 29.3552C55.9139 29.1195 56.587 29.0017 57.4285 29.0017H60.4746V29.8937H57.4622C56.6095 29.8937 56.0148 30.0451 55.6783 30.3481C55.3529 30.651 55.1902 31.0268 55.1902 31.4756C55.1902 31.9805 55.3866 32.3844 55.7792 32.6873C56.1719 32.9903 56.7217 33.1417 57.4285 33.1417C58.1017 33.1417 58.6795 32.9903 59.1619 32.6873C59.6556 32.3732 60.0146 31.9244 60.239 31.341L60.5082 32.1656C60.2838 32.749 59.8912 33.2146 59.3302 33.5624C58.7804 33.9102 58.0848 34.0841 57.2434 34.0841ZM69.1894 34.0841C68.3143 34.0841 67.529 33.8934 66.8334 33.512C66.149 33.1193 65.6104 32.5864 65.2178 31.9132C64.8251 31.2288 64.6287 30.449 64.6287 29.5739C64.6287 28.6876 64.8251 27.9078 65.2178 27.2347C65.6104 26.5615 66.149 26.0342 66.8334 25.6527C67.529 25.2713 68.3143 25.0805 69.1894 25.0805C69.9411 25.0805 70.6199 25.2264 71.2258 25.5181C71.8316 25.8098 72.3084 26.2474 72.6562 26.8308L71.7643 27.4366C71.4614 26.9879 71.0855 26.6569 70.6367 26.4437C70.188 26.2305 69.6999 26.124 69.1726 26.124C68.5443 26.124 67.9777 26.2698 67.4729 26.5615C66.968 26.842 66.5697 27.2403 66.278 27.7564C65.9863 28.2725 65.8404 28.8783 65.8404 29.5739C65.8404 30.2695 65.9863 30.8754 66.278 31.3915C66.5697 31.9076 66.968 32.3115 67.4729 32.6032C67.9777 32.8837 68.5443 33.0239 69.1726 33.0239C69.6999 33.0239 70.188 32.9173 70.6367 32.7042C71.0855 32.491 71.4614 32.1656 71.7643 31.7281L72.6562 32.3339C72.3084 32.9061 71.8316 33.3437 71.2258 33.6466C70.6199 33.9383 69.9411 34.0841 69.1894 34.0841ZM78.7372 34.0841C77.907 34.0841 77.2675 33.8598 76.8187 33.411C76.3699 32.9622 76.1455 32.3283 76.1455 31.5093V23.2125H77.3404V31.442C77.3404 31.9581 77.4694 32.3564 77.7275 32.6368C77.9967 32.9173 78.3782 33.0576 78.8719 33.0576C79.3992 33.0576 79.8367 32.9061 80.1845 32.6032L80.6053 33.4615C80.3697 33.6746 80.0836 33.8317 79.747 33.9327C79.4216 34.0337 79.085 34.0841 78.7372 34.0841ZM74.5636 26.1576V25.1647H80.0331V26.1576H74.5636ZM86.9111 34.0841C86.0584 34.0841 85.2899 33.8934 84.6055 33.512C83.9323 33.1193 83.3994 32.5864 83.0067 31.9132C82.614 31.2288 82.4177 30.449 82.4177 29.5739C82.4177 28.6876 82.614 27.9078 83.0067 27.2347C83.3994 26.5615 83.9323 26.0342 84.6055 25.6527C85.2786 25.2713 86.0472 25.0805 86.9111 25.0805C87.7862 25.0805 88.5603 25.2713 89.2335 25.6527C89.9179 26.0342 90.4508 26.5615 90.8323 27.2347C91.2249 27.9078 91.4213 28.6876 91.4213 29.5739C91.4213 30.449 91.2249 31.2288 90.8323 31.9132C90.4508 32.5864 89.9179 33.1193 89.2335 33.512C88.5491 33.8934 87.775 34.0841 86.9111 34.0841ZM86.9111 33.0239C87.5506 33.0239 88.1172 32.8837 88.6108 32.6032C89.1045 32.3115 89.4915 31.9076 89.772 31.3915C90.0637 30.8642 90.2096 30.2583 90.2096 29.5739C90.2096 28.8783 90.0637 28.2725 89.772 27.7564C89.4915 27.2403 89.1045 26.842 88.6108 26.5615C88.1172 26.2698 87.5562 26.124 86.9279 26.124C86.2996 26.124 85.7386 26.2698 85.245 26.5615C84.7513 26.842 84.3586 27.2403 84.0669 27.7564C83.7752 28.2725 83.6294 28.8783 83.6294 29.5739C83.6294 30.2583 83.7752 30.8642 84.0669 31.3915C84.3586 31.9076 84.7513 32.3115 85.245 32.6032C85.7386 32.8837 86.294 33.0239 86.9111 33.0239ZM94.7022 34V25.1647H95.8466V27.5713L95.7288 27.1505C95.9756 26.4774 96.3907 25.9669 96.9741 25.6191C97.5575 25.2601 98.2812 25.0805 99.1451 25.0805V26.2418C99.1002 26.2418 99.0553 26.2418 99.0104 26.2418C98.9656 26.2305 98.9207 26.2249 98.8758 26.2249C97.9446 26.2249 97.2153 26.511 96.688 27.0832C96.1607 27.6442 95.897 28.4464 95.897 29.4898V34H94.7022ZM102.612 37.349C102.197 37.349 101.799 37.2817 101.417 37.1471C101.047 37.0124 100.727 36.8105 100.458 36.5412L101.013 35.6493C101.238 35.8624 101.479 36.0251 101.737 36.1373C102.006 36.2607 102.304 36.3224 102.629 36.3224C103.022 36.3224 103.358 36.2102 103.639 35.9858C103.93 35.7727 104.205 35.3912 104.463 34.8415L105.036 33.5456L105.17 33.3605L108.805 25.1647H109.983L105.557 35.0602C105.31 35.6324 105.036 36.0868 104.733 36.4234C104.441 36.76 104.121 36.9956 103.773 37.1302C103.426 37.2761 103.038 37.349 102.612 37.349ZM104.968 34.2524L100.896 25.1647H102.141L105.742 33.2763L104.968 34.2524Z" fill="white"/>
</svg>
