<svg width="128" height="128" viewBox="0 0 128 128" fill="none" xmlns="http://www.w3.org/2000/svg">
<path d="M63.3912 12.2479C59.1692 12.2679 55.1392 12.6269 51.5912 13.2549C41.1412 15.1009 39.2452 18.9649 39.2452 26.0919V35.5029H63.9382V38.6399H29.9772C22.8012 38.6399 16.5172 42.9529 14.5512 51.1609C12.2832 60.5659 12.1832 66.4359 14.5512 76.2569C16.3062 83.5679 20.4982 88.7759 27.6752 88.7759H36.1662V77.4939C36.1662 69.3429 43.2172 62.1539 51.5922 62.1539H76.2572C83.1232 62.1539 88.6032 56.4999 88.6032 49.6059V26.0929C88.6032 19.3999 82.9572 14.3729 76.2572 13.2559C72.0132 12.5499 67.6122 12.2289 63.3912 12.2479V12.2479ZM50.0372 19.8169C52.5872 19.8169 54.6712 21.9339 54.6712 24.5379C54.6712 27.1309 52.5882 29.2279 50.0372 29.2279C47.4772 29.2279 45.4042 27.1309 45.4042 24.5379C45.4032 21.9339 47.4772 19.8169 50.0372 19.8169V19.8169Z" fill="url(#paint0_linear_102_19)"/>
<path d="M91.6821 38.6402V49.6062C91.6821 58.1062 84.4741 65.2612 76.2561 65.2612H51.5911C44.8351 65.2612 39.2451 71.0442 39.2451 77.8102V101.325C39.2451 108.016 45.0631 111.953 51.5911 113.872C59.4071 116.169 66.9031 116.585 76.2561 113.872C82.4721 112.071 88.6021 108.449 88.6021 101.325V91.9132H63.9381V88.7752H100.95C108.126 88.7752 110.802 83.7702 113.298 76.2562C115.876 68.5212 115.765 61.0822 113.298 51.1602C111.524 44.0152 108.137 38.6392 100.95 38.6392H91.6821V38.6402ZM77.8091 98.1872C80.3701 98.1872 82.4431 100.284 82.4431 102.879C82.4431 105.481 80.3691 107.598 77.8091 107.598C75.2591 107.598 73.1761 105.481 73.1761 102.879C73.1761 100.284 75.2591 98.1872 77.8091 98.1872V98.1872Z" fill="url(#paint1_linear_102_19)"/>
<path opacity="0.444" d="M97.309 119.597C97.309 123.14 82.493 126.013 64.218 126.013C45.942 126.013 31.126 123.14 31.126 119.597C31.126 116.053 45.941 113.18 64.218 113.18C82.493 113.18 97.309 116.052 97.309 119.597Z" fill="url(#paint2_radial_102_19)"/>
<defs>
<linearGradient id="paint0_linear_102_19" x1="10.3371" y1="15.1905" x2="67.2909" y2="63.7604" gradientUnits="userSpaceOnUse">
<stop stop-color="#5A9FD4"/>
<stop offset="1" stop-color="#306998"/>
</linearGradient>
<linearGradient id="paint1_linear_102_19" x1="88.719" y1="93.9525" x2="68.2944" y2="65.3104" gradientUnits="userSpaceOnUse">
<stop stop-color="#FFD43B"/>
<stop offset="1" stop-color="#FFE873"/>
</linearGradient>
<radialGradient id="paint2_radial_102_19" cx="0" cy="0" r="1" gradientUnits="userSpaceOnUse" gradientTransform="translate(64.0842 119.413) rotate(-90) scale(6.41832 28.2139)">
<stop stop-color="#B8B8B8" stop-opacity="0.498"/>
<stop offset="1" stop-color="#7F7F7F" stop-opacity="0"/>
</radialGradient>
</defs>
</svg>
