<svg width="128" height="128" viewBox="0 0 128 128" fill="none" xmlns="http://www.w3.org/2000/svg">
<path d="M115.95 2.78107C110.446 -2.12493 103.79 -0.151926 97.2118 5.68307C96.199 6.59317 95.2255 7.54603 94.2938 8.53907C83.0478 20.4691 72.6098 42.5591 69.3678 59.4341C70.6298 61.9971 71.6178 65.2661 72.2698 67.7621C72.5948 69.0001 72.8868 70.2501 73.1448 71.5081C73.1448 71.5081 73.0438 71.1291 72.6298 69.9301L72.3638 69.1531C72.3092 69.0094 72.2505 68.8674 72.1878 68.7271C71.4538 67.0201 69.4268 63.4181 68.5318 61.8521C67.8226 63.9291 67.1532 66.0195 66.5238 68.1221C69.1058 72.8361 70.6728 80.9221 70.6728 80.9221C70.6728 80.9221 70.5398 80.3951 69.8908 78.5671C69.3208 76.9501 66.4538 71.9301 65.7738 70.7581C64.6138 75.0481 64.1538 77.9381 64.5668 78.6411C65.3798 80.0041 66.1448 82.3641 66.8168 84.9651C68.3448 90.8331 69.4028 97.9811 69.4028 97.9811L69.4968 99.1731C69.2938 104.059 69.3948 108.954 69.7938 113.829C70.3018 119.942 71.2508 125.188 72.4618 128.001L73.2858 127.551C71.5048 122.016 70.7818 114.759 71.1018 106.396C71.5788 93.6061 74.5238 78.1811 79.9578 62.1061C89.1488 37.8451 101.896 18.3731 113.56 9.07207C102.93 18.6731 88.5368 49.7671 84.2278 61.2751C79.4038 74.1621 75.9898 86.2521 73.9298 97.8401C77.4848 86.9771 88.9728 82.3131 88.9728 82.3131C88.9728 82.3131 94.6098 75.3591 101.196 65.4301C97.2508 66.3281 90.7698 67.8711 88.5978 68.7811C85.3978 70.1211 84.5348 70.5781 84.5348 70.5781C84.5348 70.5781 94.9058 64.2661 103.805 61.4061C116.039 42.1361 129.371 14.7611 115.95 2.78107M16.8958 5.68107C11.4978 5.70107 7.12584 10.0711 7.11084 15.4701V104.044C7.12684 109.442 11.5008 113.809 16.8958 113.829H67.1228C66.7474 109.026 66.6549 104.205 66.8458 99.3911C66.8148 99.0591 66.7868 98.6371 66.7598 98.3241C66.1104 94.0602 65.2686 89.8279 64.2368 85.6401C63.5918 83.1331 62.7718 80.8511 62.2718 80.0041C61.6508 78.9531 61.7478 78.3511 61.7518 77.6991C61.7518 77.0591 61.8338 76.3941 61.9518 75.6401C62.2678 73.7621 62.6818 71.9021 63.1978 70.0661L64.3538 69.9181C64.2638 69.7301 64.2798 69.5701 64.1898 69.4021L63.9708 67.3711C64.6108 65.2341 65.2868 63.1091 66.0108 61.0001L67.0768 60.8981C67.0338 60.8161 67.0218 60.6951 66.9788 60.6181L66.7488 58.9331C70.1118 41.4371 80.5488 19.2341 92.3498 6.71407C92.7018 6.34407 93.0608 6.03107 93.4048 5.67907L16.8958 5.68107Z" fill="black"/>
</svg>
