<svg width="27" height="27" viewBox="0 0 27 27" fill="none" xmlns="http://www.w3.org/2000/svg">
<circle cx="13.1693" cy="13.1693" r="13.1693" fill="#DBFF00"/>
<path d="M16.8967 9.41852H16.9035M9.75867 6.35938H16.5568C18.434 6.35938 19.9558 7.88118 19.9558 9.75842V16.5565C19.9558 18.4338 18.434 19.9556 16.5568 19.9556H9.75867C7.88142 19.9556 6.35962 18.4338 6.35962 16.5565V9.75842C6.35962 7.88118 7.88142 6.35938 9.75867 6.35938ZM15.877 12.7292C15.9608 13.295 15.8642 13.8728 15.6008 14.3805C15.3374 14.8881 14.9206 15.2998 14.4097 15.557C13.8988 15.8141 13.3198 15.9036 12.7551 15.8128C12.1904 15.7219 11.6688 15.4553 11.2643 15.0508C10.8599 14.6464 10.5933 14.1248 10.5024 13.5601C10.4116 12.9954 10.5011 12.4164 10.7582 11.9055C11.0154 11.3946 11.427 10.9778 11.9347 10.7144C12.4424 10.451 13.0202 10.3543 13.586 10.4382C14.1631 10.5238 14.6974 10.7927 15.1099 11.2053C15.5225 11.6178 15.7914 12.1521 15.877 12.7292Z" stroke="black" stroke-width="1.35962" stroke-linecap="round" stroke-linejoin="round"/>
</svg>
