<svg width="27" height="27" viewBox="0 0 27 27" fill="none" xmlns="http://www.w3.org/2000/svg">
<circle cx="13.1693" cy="13.1693" r="13.1693" fill="#FF0000"/>
<g clip-path="url(#clip0_93_593)">
<path d="M11.3317 18.367C7.81405 19.4223 7.81405 16.6082 6.40698 16.2564M16.2564 20.4776V17.7549C16.2828 17.4195 16.2375 17.0822 16.1235 16.7656C16.0094 16.449 15.8293 16.1603 15.5951 15.9187C17.8042 15.6725 20.1259 14.8353 20.1259 10.994C20.1257 10.0117 19.7478 9.06715 19.0706 8.35574C19.3913 7.49638 19.3686 6.5465 19.0072 5.70342C19.0072 5.70342 18.1771 5.45718 16.2564 6.74465C14.6439 6.30763 12.9442 6.30763 11.3317 6.74465C9.41106 5.45718 8.5809 5.70342 8.5809 5.70342C8.21955 6.5465 8.19687 7.49638 8.51758 8.35574C7.83524 9.07242 7.45702 10.0255 7.46228 11.0151C7.46228 14.8282 9.78393 15.6654 11.993 15.9398C11.7616 16.179 11.5831 16.4642 11.4691 16.777C11.3552 17.0897 11.3084 17.4229 11.3317 17.7549V20.4776" stroke="white" stroke-width="1.40706" stroke-linecap="round" stroke-linejoin="round"/>
</g>
<defs>
<clipPath id="clip0_93_593">
<rect width="16.8848" height="16.8848" fill="white" transform="translate(5 5)"/>
</clipPath>
</defs>
</svg>
