<svg width="27" height="27" viewBox="0 0 27 27" fill="none" xmlns="http://www.w3.org/2000/svg">
<circle cx="13.3465" cy="13.1693" r="13.1693" fill="#FF2875"/>
<g clip-path="url(#clip0_93_596)">
<path d="M22.25 7.24973C21.5318 7.75634 20.7366 8.14381 19.895 8.39723C19.4433 7.87786 18.843 7.50975 18.1753 7.34267C17.5075 7.1756 16.8046 7.21763 16.1616 7.46307C15.5185 7.70851 14.9663 8.14553 14.5797 8.71502C14.1931 9.2845 13.9908 9.95898 14 10.6472V11.3972C12.682 11.4314 11.376 11.1391 10.1983 10.5463C9.02056 9.95354 8.00774 9.07871 7.25 7.99973C7.25 7.99973 4.25 14.7497 11 17.7497C9.4554 18.7982 7.61537 19.3239 5.75 19.2497C12.5 22.9997 20.75 19.2497 20.75 10.6247C20.7493 10.4158 20.7292 10.2074 20.69 10.0022C21.4555 9.24735 21.9956 8.29426 22.25 7.24973Z" stroke="#1E1E1E" stroke-width="1.5" stroke-linecap="round" stroke-linejoin="round"/>
</g>
<defs>
<clipPath id="clip0_93_596">
<rect width="18" height="18" fill="white" transform="translate(5 5)"/>
</clipPath>
</defs>
</svg>
