<svg width="270" height="290" viewBox="0 0 270 290" fill="none" xmlns="http://www.w3.org/2000/svg">
<circle cx="134.653" cy="154.653" r="108.248" stroke="#17D4E8" stroke-width="52.81"/>
<path d="M75.4917 61.5127C80.3543 61.5127 84.7538 62.5161 88.6902 64.5229C92.6266 66.4525 95.7139 69.5013 97.9523 73.6692C100.268 77.8372 101.426 83.24 101.426 89.8779V126H75.2602V94.3931C75.2602 90.4568 74.5655 87.6781 73.1762 86.0573C71.7869 84.3592 69.8959 83.5102 67.5032 83.5102C65.728 83.5102 64.0685 83.9347 62.5248 84.7837C61.0583 85.5556 59.862 86.8677 58.9358 88.7201C58.0867 90.5725 57.6622 93.081 57.6622 96.2456V126H31.4968V62.6705H56.3887V81.1947L51.4103 75.869C53.8802 71.0836 57.1991 67.4945 61.3671 65.1018C65.6122 62.7091 70.3204 61.5127 75.4917 61.5127Z" fill="#DBFF00"/>
<path d="M157.114 113.158C149.396 113.158 142.642 111.73 136.854 108.874C131.142 106.018 126.704 102.12 123.539 97.1807C120.375 92.1637 118.792 86.5293 118.792 80.2774C118.792 73.8711 120.336 68.1981 123.424 63.2583C126.588 58.3185 130.872 54.4593 136.275 51.6807C141.755 48.9021 147.891 47.5127 154.683 47.5127C160.935 47.5127 166.685 48.7477 171.934 51.2176C177.259 53.6875 181.504 57.3537 184.669 62.2163C187.911 67.0789 189.532 73.0993 189.532 80.2774C189.532 81.2036 189.493 82.2456 189.416 83.4033C189.339 84.4839 189.261 85.4873 189.184 86.4135H140.443V73.7939H175.291L165.45 77.1514C165.45 74.6815 164.987 72.5976 164.061 70.8995C163.212 69.1243 162.016 67.7736 160.472 66.8473C158.928 65.844 157.076 65.3423 154.915 65.3423C152.753 65.3423 150.862 65.844 149.242 66.8473C147.698 67.7736 146.502 69.1243 145.653 70.8995C144.803 72.5976 144.379 74.6815 144.379 77.1514V81.0878C144.379 83.7892 144.919 86.1048 146 88.0344C147.08 89.964 148.624 91.4305 150.631 92.4338C152.638 93.3601 155.069 93.8232 157.925 93.8232C160.858 93.8232 163.25 93.4372 165.103 92.6654C167.032 91.8936 169.039 90.7358 171.123 89.1921L184.785 102.969C181.697 106.288 177.877 108.835 173.323 110.611C168.846 112.309 163.443 113.158 157.114 113.158Z" fill="#FF5C00"/>
<path d="M95.2403 207L73.2428 143.671H98.0189L114.691 195.075H102.766L120.248 143.671H142.477L159.149 195.075H147.571L164.822 143.671H187.745L165.748 207H140.277L126.963 166.247H134.604L120.711 207H95.2403Z" fill="white"/>
<path d="M207.102 254.158C201.699 254.158 196.373 253.579 191.125 252.421C185.876 251.263 181.631 249.758 178.389 247.906L185.567 230.655C188.578 232.43 192.051 233.82 195.987 234.823C200.001 235.827 203.899 236.328 207.681 236.328C210.845 236.328 212.968 236.058 214.048 235.518C215.206 234.978 215.785 234.244 215.785 233.318C215.785 232.392 215.129 231.736 213.817 231.35C212.505 230.887 210.768 230.539 208.607 230.308C206.446 230.076 204.053 229.806 201.429 229.497C198.882 229.112 196.296 228.571 193.672 227.877C191.047 227.182 188.655 226.14 186.494 224.751C184.332 223.361 182.596 221.509 181.284 219.193C179.971 216.801 179.315 213.791 179.315 210.163C179.315 206.149 180.512 202.522 182.904 199.28C185.374 196.038 189.002 193.453 193.787 191.523C198.65 189.516 204.632 188.513 211.733 188.513C216.364 188.513 220.995 188.937 225.626 189.786C230.257 190.635 234.232 191.947 237.551 193.723L230.373 210.973C227.131 209.198 223.928 208.002 220.763 207.384C217.676 206.69 214.781 206.342 212.08 206.342C208.761 206.342 206.484 206.651 205.249 207.268C204.091 207.886 203.513 208.581 203.513 209.352C203.513 210.279 204.169 210.973 205.481 211.436C206.793 211.9 208.53 212.247 210.691 212.478C212.852 212.71 215.206 213.019 217.753 213.405C220.377 213.713 222.963 214.254 225.51 215.025C228.134 215.72 230.527 216.762 232.688 218.151C234.849 219.541 236.586 221.432 237.898 223.824C239.21 226.14 239.866 229.112 239.866 232.739C239.866 236.521 238.67 240.072 236.277 243.391C233.885 246.632 230.257 249.257 225.394 251.263C220.532 253.193 214.434 254.158 207.102 254.158Z" fill="#FF2875"/>
</svg>
